<?xml version="1.0" encoding="utf-8"?>
<!-- Generator: Adobe Illustrator 19.0.0, SVG Export Plug-In . SVG Version: 6.00 Build 0)  -->
<svg version="1.1" id="Capa_1" xmlns="http://www.w3.org/2000/svg" xmlns:xlink="http://www.w3.org/1999/xlink" x="0px" y="0px"
	 viewBox="-164 339.5 512 512" style="enable-background:new -164 339.5 512 512;" xml:space="preserve">
<style type="text/css">
	.st0{fill:#F7B239;}
	.st1{fill:#E09B2D;}
</style>
<g>
	<g>
		<g>
			<path class="st0" d="M277.8,531.9l-8.7-20.7c29.9-67.5,27.9-69.5,22.1-75.3L253,398.6l-3.8-3.2h-4.4c-2.3,0-9.3,0-67.3,26.3
				l-21.3-8.6c-27.6-68.4-30.4-68.4-38.5-68.4H63.9c-8.1,0-11.2,0-36.8,68.6l-21.3,8.6C-33.3,405.4-56.3,397-62.5,397l-5.1,0.2
				l-41,40.2c-6.2,5.9-8.4,7.9,23.2,74.4l-8.7,20.6c-69.9,27-69.9,29.6-69.9,37.9V623c0,8.3,0,11.2,70.1,36.3l8.7,20.6
				c-29.9,67.5-27.9,69.5-22.1,75.3l38.2,37.3l3.8,3.3h4.4c2.3,0,9.2,0,67.2-26.4l21.3,8.7c27.6,68.4,30.4,68.3,38.5,68.3H120
				c8.2,0,11.2,0,36.8-68.6l21.4-8.6c39.1,16.5,62.1,25,68.2,25l5.1-0.2l41.3-40.5c5.9-5.9,7.9-8-23.5-74.2l8.6-20.6
				c70-27,70-29.9,70-38v-52.7C348,559.8,348,556.9,277.8,531.9z M169.6,639c-7.9,13.5-19.2,24.7-32.9,32.5
				c-6.6,3.8-13.8,6.7-21.3,8.7c-7.5,2-15.3,3.1-23.4,3.1c-8,0-15.8-1-23.2-3c-7.5-2-14.7-4.9-21.3-8.7c-13.7-7.8-25.2-19-33.1-32.4
				c-3.8-6.4-6.7-13.3-8.8-20.6c-2.1-7.4-3.2-15.2-3.2-23.2c0-7.9,1.1-15.6,3.1-22.8c2-7.3,4.9-14.2,8.7-20.6
				c7.9-13.5,19.3-24.8,33-32.6c6.6-3.8,13.7-6.7,21.3-8.7c7.5-2,15.4-3.1,23.5-3.1c8,0,15.8,1,23.1,3c7.5,2,14.7,4.9,21.3,8.7
				c13.7,7.8,25.2,19,33.1,32.4c3.8,6.4,6.7,13.3,8.8,20.6c2,7.3,3.1,15.1,3.1,23.1c0,7.9-1.1,15.6-3.1,22.9
				C176.3,625.7,173.4,632.6,169.6,639z"/>
		</g>
	</g>
</g>
<path class="st1" d="M27.1,413.3l41.4,97.5c-7.5,2-14.7,4.9-21.3,8.7L5.9,421.9L27.1,413.3z"/>
<path class="st1" d="M178.2,769.2l-21.4,8.6l-41.4-97.6c7.5-2,14.7-5,21.3-8.7L178.2,769.2z"/>
<path class="st1" d="M47.5,671.7c6.6,3.7,13.8,6.7,21.3,8.7l-41.1,97.7l-21.3-8.7L47.5,671.7z"/>
<path class="st1" d="M177.5,421.7l-41.1,97.7c-6.6-3.7-13.8-6.7-21.3-8.7l41.1-97.7L177.5,421.7z"/>
<path class="st1" d="M-85.5,511.8l99.7,40.3c-3.7,6.4-6.7,13.3-8.7,20.6l-99.7-40.3L-85.5,511.8z"/>
<path class="st1" d="M278,658.7l-8.6,20.6L169.6,639c3.7-6.4,6.7-13.3,8.7-20.6L278,658.7z"/>
<path class="st1" d="M5.6,618.7c2,7.3,5,14.2,8.8,20.6l-99.6,40.6l-8.7-20.6L5.6,618.7z"/>
<path class="st1" d="M277.8,531.9l-99.5,40.6c-2-7.3-5-14.2-8.8-20.6l99.6-40.6L277.8,531.9z"/>
</svg>
